<svg width="26" height="29" viewBox="0 0 26 29" fill="none" xmlns="http://www.w3.org/2000/svg">
<g filter="url(#filter0_d_501_21)">
<path fill-rule="evenodd" clip-rule="evenodd" d="M17.565 5.0023C18.1684 5.60551 18.647 6.32168 18.9736 7.1099C19.3001 7.89812 19.4682 8.74295 19.4682 9.59614C19.4682 10.4493 19.3001 11.2942 18.9736 12.0824C18.647 12.8706 18.1684 13.5868 17.565 14.19L12.9712 18.7812L8.37733 14.1887C7.77406 13.5854 7.29552 12.8692 6.96903 12.081C6.64254 11.2928 6.4745 10.448 6.4745 9.59484C6.4745 8.74168 6.64254 7.89688 6.96903 7.10867C7.29552 6.32046 7.77406 5.60427 8.37733 5.001C8.9806 4.39773 9.69679 3.91919 10.485 3.5927C11.2732 3.26621 12.118 3.09817 12.9712 3.09817C13.8243 3.09817 14.6691 3.26621 15.4573 3.5927C16.2456 3.91919 16.9617 4.39773 17.565 5.001V5.0023ZM18.9421 15.5671C20.1232 14.3861 20.9275 12.8814 21.2534 11.2433C21.5793 9.60524 21.4121 7.90729 20.773 6.36421C20.1339 4.82112 19.0515 3.50222 17.6628 2.57429C16.2741 1.64636 14.6414 1.15108 12.9712 1.15108C11.301 1.15108 9.66827 1.64636 8.27955 2.57429C6.89084 3.50222 5.80848 4.82112 5.16935 6.36421C4.53022 7.90729 4.36303 9.60524 4.68893 11.2433C5.01482 12.8814 5.81916 14.3861 7.00022 15.5671L11.5928 20.1609C11.7737 20.342 11.9886 20.4857 12.2251 20.5837C12.4616 20.6817 12.7152 20.7321 12.9712 20.7321C13.2272 20.7321 13.4807 20.6817 13.7172 20.5837C13.9537 20.4857 14.1686 20.342 14.3496 20.1609L18.9421 15.5671ZM12.9712 12.1945C13.6603 12.1945 14.3212 11.9207 14.8085 11.4334C15.2957 10.9461 15.5695 10.2853 15.5695 9.59614C15.5695 8.90702 15.2957 8.24612 14.8085 7.75884C14.3212 7.27156 13.6603 6.99781 12.9712 6.99781C12.2821 6.99781 11.6212 7.27156 11.1339 7.75884C10.6466 8.24612 10.3728 8.90702 10.3728 9.59614C10.3728 10.2853 10.6466 10.9461 11.1339 11.4334C11.6212 11.9207 12.2821 12.1945 12.9712 12.1945Z" fill="white"/>
</g>
<defs>
<filter id="filter0_d_501_21" x="-1.42212" y="0.501999" width="28.7866" height="28.7866" filterUnits="userSpaceOnUse" color-interpolation-filters="sRGB">
<feFlood flood-opacity="0" result="BackgroundImageFix"/>
<feColorMatrix in="SourceAlpha" type="matrix" values="0 0 0 0 0 0 0 0 0 0 0 0 0 0 0 0 0 0 127 0" result="hardAlpha"/>
<feOffset dy="4"/>
<feGaussianBlur stdDeviation="2"/>
<feComposite in2="hardAlpha" operator="out"/>
<feColorMatrix type="matrix" values="0 0 0 0 0 0 0 0 0 0 0 0 0 0 0 0 0 0 0.25 0"/>
<feBlend mode="normal" in2="BackgroundImageFix" result="effect1_dropShadow_501_21"/>
<feBlend mode="normal" in="SourceGraphic" in2="effect1_dropShadow_501_21" result="shape"/>
</filter>
</defs>
</svg>
